<svg width="20" height="20" viewBox="0 0 20 20" fill="none" xmlns="http://www.w3.org/2000/svg">
<g clip-path="url(#clip0_440_194)">
<path d="M3.32568 5.8335H16.659" stroke="white" stroke-width="1.5" stroke-linecap="round" stroke-linejoin="round"/>
<path d="M8.32568 9.1665V14.1665" stroke="white" stroke-width="1.5" stroke-linecap="round" stroke-linejoin="round"/>
<path d="M11.6587 9.1665V14.1665" stroke="white" stroke-width="1.5" stroke-linecap="round" stroke-linejoin="round"/>
<path d="M4.15869 5.8335L4.99202 15.8335C4.99202 16.2755 5.16762 16.6994 5.48018 17.012C5.79274 17.3246 6.21666 17.5002 6.65869 17.5002H13.3254C13.7674 17.5002 14.1913 17.3246 14.5039 17.012C14.8164 16.6994 14.992 16.2755 14.992 15.8335L15.8254 5.8335" stroke="white" stroke-width="1.5" stroke-linecap="round" stroke-linejoin="round"/>
<path d="M7.49219 5.83333V3.33333C7.49219 3.11232 7.57999 2.90036 7.73627 2.74408C7.89255 2.5878 8.10451 2.5 8.32552 2.5H11.6589C11.8799 2.5 12.0918 2.5878 12.2481 2.74408C12.4044 2.90036 12.4922 3.11232 12.4922 3.33333V5.83333" stroke="white" stroke-width="1.5" stroke-linecap="round" stroke-linejoin="round"/>
</g>
<defs>
<clipPath id="clip0_440_194">
<rect width="20" height="20" fill="white" transform="translate(-0.0078125)"/>
</clipPath>
</defs>
</svg>
